<svg xmlns="http://www.w3.org/2000/svg" xmlns:xlink="http://www.w3.org/1999/xlink" width="215" height="216"><defs><path id="a" d="M0 .97h214.034V216H0z"/><path id="c" d="M0 216h214V1H0z"/></defs><g fill="none" fill-rule="evenodd"><mask id="b" fill="#fff"><use xlink:href="#a"/></mask><path fill="#DC3A41" d="M214.034 108.486c0 59.378-47.913 107.514-107.016 107.514C47.913 216 0 167.864 0 108.486 0 49.108 47.913.969 107.018.969c59.103 0 107.016 48.139 107.016 107.517" mask="url(#b)"/><mask id="d" fill="#fff"><use xlink:href="#c"/></mask><path fill="#FEFEFE" d="M138.208 90.845h4.077v-21.3h-4.077v21.3zm-33.5-.003h4.163V69.573h-4.162v21.27zm-33.518-.068h4.174V69.508H71.19v21.266zm37.427 6.598h-20.05c-13.425 0-26.852-.007-40.282 0-3.28.003-5.968 1.95-6.345 4.843-.247 1.901-.102 3.862-.083 5.795.003.31.193.798.425.895 3.124 1.29 4.952 3.999 7.154 6.314 2.033 2.138 4.287 2.084 6.337-.046.839-.873 1.601-1.82 2.398-2.734 4.856-5.582 11.782-5.635 16.729-.12.809.9 1.55 1.864 2.385 2.74 2.202 2.303 4.421 2.308 6.594.014.875-.922 1.664-1.921 2.512-2.87 4.666-5.224 11.492-5.31 16.248-.192.987 1.063 1.874 2.228 2.891 3.261 1.98 2.017 4.22 2 6.208-.034 1.014-1.038 1.904-2.2 2.893-3.261 4.7-5.042 11.534-4.983 16.123.131.929 1.036 1.79 2.14 2.76 3.138 1.977 2.028 4.245 2.045 6.217.034 1.144-1.165 2.134-2.481 3.28-3.648 4.57-4.65 11.205-4.51 15.607.306 1.063 1.163 2.024 2.42 3.148 3.522 1.791 1.756 4.008 1.722 5.839-.003.481-.457.85-1.036 1.349-1.471 1.894-1.664 3.817-3.288 5.733-4.925.218-.187.55-.309.663-.542.865-1.786-.21-7.883-1.623-9.325-1.413-1.442-3.17-1.841-5.142-1.839-19.99.025-39.979.015-59.968.017zm-66.701 19.129v46.895h133.34v-46.89c-.972 1.111-1.71 1.996-2.49 2.838-4.753 5.156-11.548 5.136-16.252-.054-.975-1.077-1.86-2.245-2.891-3.264-1.855-1.83-4.128-1.816-5.964.027-1.068 1.07-1.987 2.284-3.023 3.388-4.749 5.056-11.482 4.998-16.115-.131-.934-1.036-1.79-2.143-2.762-3.138-1.953-2.006-4.284-2.02-6.235-.026-1.144 1.167-2.13 2.485-3.277 3.653-4.482 4.557-10.908 4.523-15.35-.069-.844-.868-1.623-1.8-2.406-2.726-2.7-3.193-5.095-3.179-7.83.051-.782.924-1.55 1.868-2.395 2.734-4.446 4.548-10.942 4.536-15.365-.034-1.095-1.131-2.066-2.379-3.15-3.52-2.005-2.1-4.322-2.103-6.353-.012-.884.912-1.679 1.912-2.52 2.868-4.81 5.465-11.718 5.484-16.609.044-.708-.788-1.412-1.579-2.353-2.634zM16 164.894c1.332-.447 2.65-1.24 3.993-1.281 5.03-.151 10.07-.061 15.349-.061v-2.42c0-18.929.151-37.863-.079-56.79-.085-6.972 5.216-13.724 13.665-13.456 5.147.165 10.306.032 15.722.032v-2.253c0-7.075-.008-14.15.002-21.23.005-3.39 1.049-4.409 4.495-4.414 2.979-.004 5.958-.026 8.935.008 2.669.029 3.878 1.243 3.883 3.918.02 7.136.008 14.271.008 21.41v2.439h16.12v-2.894c-.002-6.895-.015-13.79-.007-20.683.005-3.003 1.183-4.185 4.176-4.207 2.796-.02 5.592-.012 8.386.002 3.83.02 4.775.954 4.778 4.701.002 6.954 0 13.907 0 20.865v2.23h16.181v-1.974c.003-7.255-.002-14.515.003-21.772.002-2.936 1.095-4.023 4.076-4.04 3.1-.017 6.2-.027 9.3 0 2.607.022 3.8 1.172 3.812 3.77.03 7.376.012 14.755.012 22.132v1.992h2.117c6.017-.003 12.034-.018 18.051-.005 7.398.012 12.924 5.477 12.929 12.82.014 19.171.005 38.344.005 57.516v2.303h14.742c.85 0 1.703-.022 2.551-.003 3.175.069 4.57 1.868 3.365 4.794-.33.805-1.891 1.527-2.91 1.557-5.16.16-10.329.08-15.493.08-54.637-.005-109.272 0-163.907-.058-1.42 0-2.84-.674-4.26-1.037v-3.99zm90.055-119.996c-1.297 1.36-2.338 2.36-3.273 3.45-1.528 1.786-1.317 4.367.41 5.9 1.591 1.412 4.097 1.392 5.665-.045 1.725-1.579 1.88-4.082.32-5.892-.933-1.087-1.931-2.117-3.122-3.413M105.888 62c-4.497-.24-7.934-2.266-9.812-6.428-1.872-4.147-1.297-8.138 1.688-11.593 1.8-2.089 3.838-3.988 5.844-5.893 1.568-1.487 3.265-1.437 4.859.089 1.91 1.828 3.856 3.63 5.601 5.607 3.065 3.47 3.785 7.479 1.885 11.722-1.9 4.25-5.378 6.296-10.065 6.496m34.34-16.958c-1.344 1.29-2.469 2.211-3.405 3.296-1.547 1.787-1.327 4.427.367 5.919 1.564 1.378 4.16 1.355 5.696-.05 1.712-1.568 1.871-4.072.314-5.917-.926-1.097-1.939-2.125-2.972-3.248M140.058 62c-4.385-.22-7.684-2.052-9.653-5.8-1.993-3.793-1.945-7.753.655-11.19 1.993-2.63 4.5-4.892 6.912-7.176 1.304-1.234 3.079-1.052 4.433.24 1.952 1.867 3.932 3.725 5.712 5.75 3.066 3.48 3.71 7.51 1.82 11.723-1.898 4.237-5.412 6.256-9.879 6.453M73.146 45.005c-1.323 1.308-2.417 2.261-3.358 3.341-1.564 1.796-1.35 4.352.39 5.903 1.627 1.449 4.302 1.383 5.855-.137 1.548-1.52 1.658-4.104.191-5.799-.943-1.087-1.96-2.112-3.078-3.308M84 51.057c.028 4.813-3.145 9.094-7.766 10.478-4.705 1.408-9.836-.46-12.47-4.535-2.624-4.056-2.318-9.385.9-12.953 1.898-2.107 3.96-4.074 6.026-6.027 1.47-1.388 3.26-1.355 4.762.074a136.957 136.957 0 015.878 5.905c1.838 1.967 2.662 4.377 2.67 7.058" mask="url(#d)"/><path fill="#FEFEFE" d="M40 112.446V164h138v-54c-1.007 1.164-1.77 2.088-2.576 2.973-4.922 5.398-11.954 10.275-16.822 4.842-1.009-1.127-1.923-2.353-2.99-3.416-1.921-1.919-4.274-1.904-6.175.027-1.104 1.12-2.055 2.392-3.127 3.548-4.914 5.296-11.883 5.233-16.68-.14-.965-1.082-1.853-2.242-2.857-3.286-2.02-2.097-4.434-2.115-6.452-.024-1.185 1.223-2.206 2.602-3.39 3.823-4.642 4.774-11.291 4.737-15.89-.069-.873-.911-1.678-1.887-2.49-2.855-2.793-3.345-5.272-3.333-8.102.05-.811.97-1.604 1.957-2.479 2.864-4.602 4.764-11.324 4.752-15.902-.032-1.133-1.186-2.138-2.495-3.264-3.688-2.072-2.2-4.47-2.206-6.569-.015-.916.959-1.738 2.002-2.608 3.002-4.98 5.725-12.132 3.294-17.192-2.401-.734-.826-1.462-1.654-2.435-2.757" mask="url(#d)"/><path fill="#DC3A41" d="M107.001 1C47.908 1 0 49.13 0 108.502 0 167.872 47.908 216 107.001 216 166.095 216 214 167.873 214 108.502 214 49.13 166.095 1 107.001 1m0 7.363c54.96 0 99.67 44.922 99.67 100.14 0 55.215-44.71 100.134-99.67 100.134S7.328 163.717 7.328 108.502c0-55.217 44.713-100.14 99.673-100.14" mask="url(#d)"/></g></svg>